HIERARCHY
ROOT Hips
{
	OFFSET	0.00	0.00	0.00
	CHANNELS 6 Xposition Yposition Zposition Zrotation Xrotation Yrotation
	JOINT LeftUpLeg
	{
		OFFSET	 0.126116	-0.014019	-0.065224
		CHANNELS 3 Zrotation Xrotation Yrotation
		JOINT LeftLeg
		{
			OFFSET	 0.000000	 0.000000	 0.569914
			CHANNELS 3 Zrotation Xrotation Yrotation
			JOINT LeftFoot
			{
				OFFSET	 0.000000	 0.000000	 0.544423
				CHANNELS 3 Zrotation Xrotation Yrotation
				JOINT LeftToeBase
				{
					OFFSET	 0.000000	 0.000000	 0.207117
					CHANNELS 3 Zrotation Xrotation Yrotation
					End Site
					{
						OFFSET	 0.000000	 0.000000	 0.207117
					}
				}
			}
		}
	}
	JOINT RightUpLeg
	{
		OFFSET	-0.124023	-0.008373	-0.065224
		CHANNELS 3 Zrotation Xrotation Yrotation
		JOINT RightLeg
		{
			OFFSET	 0.000000	 0.000000	 0.570047
			CHANNELS 3 Zrotation Xrotation Yrotation
			JOINT RightFoot
			{
				OFFSET	 0.000000	 0.000000	 0.544354
				CHANNELS 3 Zrotation Xrotation Yrotation
				JOINT RightToeBase
				{
					OFFSET	 0.000000	 0.000000	 0.207540
					CHANNELS 3 Zrotation Xrotation Yrotation
					End Site
					{
						OFFSET	 0.000000	 0.000000	 0.207540
					}
				}
			}
		}
	}
	JOINT Spine
	{
		OFFSET	 0.000184	-0.007763	 0.117403
		CHANNELS 3 Zrotation Xrotation Yrotation
		JOINT Spine1
		{
			OFFSET	 0.000000	 0.000000	 0.137269
			CHANNELS 3 Zrotation Xrotation Yrotation
			JOINT Spine2
			{
				OFFSET	 0.000000	 0.000000	 0.156879
				CHANNELS 3 Zrotation Xrotation Yrotation
				JOINT LeftShoulder
				{
					OFFSET	 0.080501	-0.002496	 0.160144
					CHANNELS 3 Zrotation Xrotation Yrotation
					JOINT LeftArm
					{
						OFFSET	 0.000000	 0.000000	 0.164363
						CHANNELS 3 Zrotation Xrotation Yrotation
						JOINT LeftForeArm
						{
							OFFSET	 0.000000	 0.000000	 0.364576
							CHANNELS 3 Zrotation Xrotation Yrotation
							JOINT LeftHand
							{
								OFFSET	 0.000000	 0.000000	 0.360812
								CHANNELS 3 Zrotation Xrotation Yrotation
								JOINT LeftHandIndex1
								{
									OFFSET	 0.000000	 0.000000	 0.086006
									CHANNELS 3 Zrotation Xrotation Yrotation
									JOINT LeftHandIndex2
									{
										OFFSET	 0.000000	 0.000000	 0.047236
										CHANNELS 3 Zrotation Xrotation Yrotation
										JOINT LeftHandIndex3
										{
											OFFSET	-0.004284	-0.000551	 0.038166
											CHANNELS 3 Zrotation Xrotation Yrotation
											End Site
											{
												OFFSET	-0.004284	-0.000551	 0.038166
											}
										}
									}
								}
							}
						}
					}
				}
				JOINT Neck
				{
					OFFSET	 0.000000	 0.000000	 0.176489
					CHANNELS 3 Zrotation Xrotation Yrotation
					JOINT Head
					{
						OFFSET	 0.000000	-0.001747	 0.077940
						CHANNELS 3 Zrotation Xrotation Yrotation
						End Site
						{
							OFFSET	 0.000000	-0.001747	 0.077940
						}
					}
				}
				JOINT RightShoulder
				{
					OFFSET	-0.080363	 0.000306	 0.159706
					CHANNELS 3 Zrotation Xrotation Yrotation
					JOINT RightArm
					{
						OFFSET	 0.000000	 0.000000	 0.164196
						CHANNELS 3 Zrotation Xrotation Yrotation
						JOINT RightForeArm
						{
							OFFSET	 0.000000	 0.000000	 0.365611
							CHANNELS 3 Zrotation Xrotation Yrotation
							JOINT RightHand
							{
								OFFSET	 0.000000	 0.000000	 0.360648
								CHANNELS 3 Zrotation Xrotation Yrotation
								JOINT RightHandIndex1
								{
									OFFSET	 0.000000	 0.000000	 0.069977
									CHANNELS 3 Zrotation Xrotation Yrotation
									JOINT RightHandIndex2
									{
										OFFSET	 0.000000	 0.000000	 0.052305
										CHANNELS 3 Zrotation Xrotation Yrotation
										JOINT RightHandIndex3
										{
											OFFSET	 0.009002	-0.000782	 0.042196
											CHANNELS 3 Zrotation Xrotation Yrotation
											End Site
											{
												OFFSET	 0.009002	-0.000782	 0.042196
											}
										}
									}
								}
							}
						}
					}
				}
			}
		}
	}
}
MOTION
Frames:    6
Frame Time: 0.03333334
-0.000571	 0.002647	 1.221540	 0.004060	 0.007392	-0.097264	 9.209143	-13.734830	 177.473600	 0.777119	-35.821570	-2.379812	-28.246740	 82.213690	 22.783800	-2.385833	 28.452760	 0.000004	-9.312041	-13.135790	-177.167600	-0.781529	-35.722350	 2.327523	 30.497670	 82.791980	-25.186040	 2.384658	 28.388730	 0.000004	-11.735270	 2.723459	-0.016858	 1.165653	 3.668015	 0.475130	-3.501770	-4.624695	-0.774905	-91.776140	 78.527450	 180.000000	 48.666260	 34.754590	-52.635560	-25.308360	 1.874345	-5.435088	-30.002830	 4.357331	-4.143230	-2.635965	 4.993658	 6.788941	-5.165319	 0.784187	 3.516649	-5.225038	 0.466231	 0.424329	-0.000002	-3.783157	-0.089647	-3.393679	 4.940075	 0.146421	 89.782090	 78.203900	-180.000000	 2.411773	 12.899220	 104.274100	-17.146040	 1.549688	 5.557736	 5.488342	 3.562252	-6.218809	 6.112037	 4.509576	-0.364401	 4.968462	 1.518543	-9.347576	 5.168945	 0.703820	 2.021906
-0.000580	 0.001839	 1.221749	 0.004052	 0.007387	-0.097276	 9.210964	-13.689010	 177.470000	 0.780922	-35.747200	-2.373307	-28.139640	 82.189150	 22.675570	-2.385833	 28.452760	 0.000004	-9.314532	-13.048420	-177.158000	-0.786172	-35.629360	 2.319557	 30.496810	 82.785740	-25.185330	 2.384658	 28.388730	 0.000004	-11.481770	 2.723458	-0.016845	 1.165657	 3.668018	 0.475141	-3.501766	-4.624692	-0.774908	-91.776130	 78.527430	 179.999900	 48.673670	 34.752740	-52.644810	-25.417480	 1.893018	-5.461782	-30.023710	 4.385915	-4.140462	-2.635965	 4.993658	 6.788941	-5.165319	 0.784187	 3.516649	-5.225038	 0.466231	 0.424329	-0.000002	-3.783157	-0.089647	-3.393678	 4.940074	 0.146421	 89.782180	 78.203890	 179.999900	 2.432542	 12.974590	 104.299800	-17.092270	 1.569904	 5.587821	 5.517547	 3.546781	-6.242566	 6.112037	 4.509576	-0.364401	 4.968462	 1.518543	-9.347576	 5.168945	 0.703820	 2.021906
-0.000587	 0.001028	 1.221946	 0.004063	 0.007396	-0.097233	 9.212650	-13.645170	 177.466500	 0.784506	-35.676980	-2.367173	-28.041760	 82.166540	 22.576640	-2.385833	 28.452760	 0.000004	-9.316979	-12.962810	-177.148500	-0.790609	-35.540160	 2.311936	 30.505270	 82.781040	-25.194030	 2.384658	 28.388730	 0.000004	-11.201990	 2.723452	-0.016888	 1.165653	 3.668016	 0.475129	-3.501770	-4.624696	-0.774905	-91.776150	 78.527470	 180.000000	 48.688250	 34.754300	-52.664170	-25.523600	 1.913496	-5.490200	-30.046730	 4.415190	-4.137832	-2.635965	 4.993658	 6.788941	-5.165319	 0.784187	 3.516649	-5.225038	 0.466231	 0.424329	-0.000002	-3.783157	-0.089647	-3.393678	 4.940075	 0.146421	 89.782070	 78.203900	-180.000000	 2.437190	 13.059280	 104.322100	-17.048490	 1.589667	 5.615644	 5.555356	 3.517474	-6.270068	 6.112037	 4.509576	-0.364401	 4.968462	 1.518543	-9.347576	 5.168945	 0.703820	 2.021906
-0.000591	 0.000333	 1.222103	 0.004063	 0.007396	-0.097233	 9.214027	-13.609290	 177.463600	 0.787386	-35.620310	-2.362231	-27.965370	 82.148700	 22.499420	-2.385833	 28.452760	 0.000004	-9.318961	-12.891280	-177.140500	-0.794220	-35.467240	 2.305718	 30.520000	 82.778500	-25.209000	 2.384658	 28.388730	 0.000004	-10.941530	 2.723451	-0.016888	 1.165653	 3.668008	 0.475134	-3.501767	-4.624690	-0.774906	-91.776190	 78.527450	-180.000000	 48.707740	 34.758910	-52.691960	-25.610240	 1.930134	-5.513198	-30.068340	 4.440657	-4.135693	-2.635965	 4.993658	 6.788941	-5.165319	 0.784187	 3.516649	-5.225038	 0.466231	 0.424329	-0.000002	-3.783157	-0.089647	-3.393679	 4.940075	 0.146421	 89.782100	 78.203870	-180.000000	 2.419566	 13.130480	 104.333000	-17.014800	 1.605917	 5.639585	 5.588963	 3.493518	-6.293339	 6.112037	 4.509576	-0.364401	 4.968462	 1.518543	-9.347576	 5.168945	 0.703820	 2.021906
-0.000591	-0.000588	 1.222297	 0.004060	 0.007392	-0.097268	 9.215749	-13.564000	 177.460000	 0.790952	-35.549880	-2.356100	-27.873890	 82.126950	 22.406950	-2.385833	 28.452760	 0.000004	-9.321459	-12.798760	-177.129900	-0.798770	-35.375000	 2.297865	 30.549080	 82.776780	-25.238510	 2.384658	 28.388730	 0.000004	-10.565380	 2.723456	-0.016854	 1.165654	 3.668010	 0.475135	-3.501766	-4.624687	-0.774904	-91.776200	 78.527470	 180.000000	 48.746030	 34.768370	-52.746500	-25.720020	 1.951891	-5.542849	-30.099220	 4.474986	-4.132968	-2.635965	 4.993658	 6.788941	-5.165319	 0.784187	 3.516649	-5.225038	 0.466231	 0.424329	-0.000002	-3.783157	-0.089647	-3.393679	 4.940073	 0.146421	 89.782130	 78.203920	 180.000000	 2.346627	 13.227200	 104.331000	-16.980580	 1.626358	 5.668982	 5.643021	 3.476639	-6.322614	 6.112037	 4.509576	-0.364401	 4.968462	 1.518543	-9.347576	 5.168945	 0.703820	 2.021906
-0.000585	-0.001225	 1.222403	 0.004052	 0.007387	-0.097276	 9.216706	-13.537270	 177.457600	 0.792932	-35.510700	-2.352694	-27.829840	 82.116110	 22.362430	-2.385833	 28.452760	 0.000004	-9.322948	-12.739530	-177.122800	-0.801440	-35.320670	 2.293253	 30.590260	 82.779550	-25.280180	 2.384658	 28.388730	 0.000004	-10.285170	 2.723458	-0.016845	 1.165657	 3.668018	 0.475141	-3.501768	-4.624694	-0.774910	-91.776130	 78.527430	 180.000000	 48.777280	 34.781580	-52.794670	-25.790070	 1.965800	-5.561890	-30.122430	 4.498936	-4.131268	-2.635965	 4.993658	 6.788941	-5.165319	 0.784187	 3.516649	-5.225038	 0.466231	 0.424329	-0.000002	-3.783157	-0.089647	-3.393678	 4.940075	 0.146421	 89.782140	 78.203890	 180.000000	 2.329307	 13.310440	 104.328900	-16.963460	 1.639554	 5.686895	 5.684648	 3.471894	-6.341956	 6.112037	 4.509576	-0.364401	 4.968462	 1.518543	-9.347576	 5.168945	 0.703820	 2.021906
